<svg width="120" height="40" viewBox="0 0 120 40" fill="none" xmlns="http://www.w3.org/2000/svg">
    <path d="M110.135 0.00013H9.53468C9.16798 0.00013 8.80568 0.00013 8.43995 0.00213C8.1338 0.00413 7.83009 0.00994 7.521 0.01483C6.84951 0.0227318 6.17961 0.0818063 5.5171 0.19154C4.85552 0.303663 4.21467 0.515046 3.61622 0.81854C3.0185 1.1246 2.47235 1.5223 1.99757 1.9972C1.5203 2.47077 1.12246 3.01815 0.81935 3.61829C0.5154 4.21724 0.304641 4.85907 0.19435 5.52161C0.0830109 6.18332 0.0230984 6.85265 0.01515 7.52361C0.00587 7.83021 0.00489 8.13783 0 8.44447V31.5587C0.00489 31.8692 0.00587 32.17 0.01515 32.4806C0.0231008 33.1516 0.0830134 33.8209 0.19435 34.4825C0.304336 35.1455 0.515108 35.7877 0.81935 36.3868C1.12233 36.985 1.52022 37.5302 1.99757 38.0011C2.47054 38.4781 3.01705 38.8761 3.61622 39.1798C4.21467 39.4841 4.85545 39.6968 5.5171 39.8106C6.17972 39.9195 6.84956 39.9786 7.521 39.9874C7.83009 39.9942 8.1338 39.9981 8.43995 39.9981C8.80567 40.0001 9.168 40.0001 9.53468 40.0001H110.135C110.494 40.0001 110.859 40.0001 111.219 39.9981C111.523 39.9981 111.836 39.9942 112.141 39.9874C112.811 39.9791 113.479 39.92 114.141 39.8106C114.804 39.696 115.448 39.4834 116.049 39.1798C116.647 38.8759 117.193 38.478 117.666 38.0011C118.142 37.5284 118.541 36.9836 118.848 36.3868C119.15 35.7872 119.358 35.1451 119.467 34.4825C119.578 33.8208 119.64 33.1516 119.652 32.4806C119.656 32.17 119.656 31.8692 119.656 31.5587C119.664 31.1954 119.664 30.8341 119.664 30.4649V9.53626C119.664 9.17005 119.664 8.80677 119.656 8.44447C119.656 8.13783 119.656 7.83021 119.652 7.52357C119.64 6.85255 119.578 6.18337 119.467 5.52157C119.358 4.85941 119.149 4.21763 118.848 3.61825C118.23 2.41533 117.252 1.43616 116.049 0.81845C115.448 0.515697 114.804 0.30437 114.141 0.19145C113.48 0.0812328 112.811 0.0221378 112.141 0.01469C111.836 0.00981 111.523 0.00395 111.219 0.002C110.859 0 110.494 0 110.135 0V0.00013Z" fill="#A6A6A6"/>
    <path d="M8.44484 39.1251C8.14016 39.1251 7.84284 39.1212 7.54055 39.1144C6.91433 39.1063 6.28957 39.0517 5.67141 38.9513C5.095 38.852 4.53661 38.6674 4.01467 38.4034C3.49751 38.1416 3.02582 37.7984 2.61767 37.3868C2.20361 36.9801 1.85888 36.5084 1.59716 35.9903C1.33255 35.4689 1.14942 34.91 1.05416 34.3331C0.951281 33.7132 0.895621 33.0864 0.887656 32.4581C0.881316 32.2472 0.873016 31.545 0.873016 31.545V8.44446C0.873016 8.44446 0.881856 7.75305 0.887706 7.54992C0.895332 6.9226 0.950669 6.29678 1.05324 5.67785C1.14868 5.09937 1.33194 4.53887 1.5967 4.01575C1.85746 3.49807 2.20027 3.02598 2.61184 2.6178C3.02294 2.20574 3.49614 1.86073 4.01418 1.59533C4.53492 1.33222 5.09225 1.14885 5.6675 1.05139C6.28769 0.949958 6.91462 0.895118 7.54301 0.887332L8.44533 0.875122H111.214L112.127 0.887822C112.75 0.895221 113.371 0.949572 113.985 1.05041C114.566 1.1491 115.13 1.33374 115.656 1.59826C116.694 2.13311 117.539 2.97929 118.071 4.01819C118.332 4.5377 118.512 5.09363 118.606 5.66711C118.71 6.29111 118.768 6.92186 118.78 7.55432C118.783 7.83752 118.783 8.14172 118.783 8.44446C118.791 8.81946 118.791 9.17639 118.791 9.53625V30.4649C118.791 30.8282 118.791 31.1827 118.783 31.5401C118.783 31.8653 118.783 32.1632 118.779 32.4698C118.768 33.091 118.71 33.7105 118.608 34.3233C118.515 34.9044 118.333 35.4676 118.068 35.9933C117.805 36.5057 117.462 36.9734 117.053 37.379C116.644 37.7928 116.172 38.1381 115.653 38.4015C115.128 38.6675 114.566 38.8529 113.985 38.9513C113.367 39.0523 112.742 39.1068 112.116 39.1144C111.823 39.1212 111.517 39.1251 111.219 39.1251L110.135 39.1271L8.44484 39.1251Z" fill="black"/>
    <path d="M24.7689 20.3008C24.7796 19.4662 25.0013 18.6478 25.4134 17.9218C25.8254 17.1959 26.4143 16.5859 27.1254 16.1488C26.6737 15.5036 26.0777 14.9727 25.3849 14.5981C24.6921 14.2236 23.9215 14.0157 23.1343 13.9911C21.455 13.8148 19.8271 14.9959 18.9714 14.9959C18.0991 14.9959 16.7816 14.0086 15.3629 14.0378C14.4452 14.0674 13.5509 14.3343 12.767 14.8123C11.9831 15.2904 11.3364 15.9633 10.89 16.7656C8.95595 20.1141 10.3985 25.0351 12.2511 27.7417C13.178 29.0671 14.2613 30.5475 15.6788 30.495C17.0658 30.4375 17.5839 29.6105 19.2582 29.6105C20.9169 29.6105 21.403 30.495 22.8492 30.4616C24.3376 30.4375 25.2753 29.1304 26.1697 27.7925C26.8357 26.8481 27.3481 25.8044 27.6881 24.7C26.8234 24.3343 26.0855 23.7221 25.5664 22.9398C25.0472 22.1575 24.7699 21.2397 24.7689 20.3008Z" fill="white"/>
    <path d="M22.0372 12.211C22.8488 11.2368 23.2486 9.98463 23.1518 8.7204C21.9119 8.85062 20.7667 9.44318 19.9442 10.38C19.542 10.8377 19.234 11.3701 19.0378 11.9469C18.8415 12.5236 18.7609 13.1334 18.8005 13.7414C19.4206 13.7478 20.0341 13.6134 20.5948 13.3483C21.1554 13.0832 21.6486 12.6943 22.0372 12.211Z" fill="white"/>
    <path d="M42.3023 27.1398H37.5689L36.4322 30.4962H34.4273L38.9107 18.0782H40.9937L45.4771 30.4962H43.438L42.3023 27.1398ZM38.0591 25.591H41.8111L39.9615 20.1437H39.9097L38.0591 25.591Z" fill="white"/>
    <path d="M55.1597 25.9698C55.1597 28.7833 53.6538 30.5909 51.3814 30.5909C50.8057 30.621 50.2332 30.4884 49.7294 30.2083C49.2256 29.9281 48.8109 29.5118 48.5327 29.0069H48.4897V33.4913H46.6313V21.4425H48.4302V22.9483H48.4644C48.7553 22.4459 49.1771 22.0317 49.6847 21.7498C50.1923 21.468 50.7669 21.329 51.3472 21.3477C53.645 21.3477 55.1597 23.1641 55.1597 25.9698ZM53.2495 25.9698C53.2495 24.1368 52.3023 22.9317 50.857 22.9317C49.437 22.9317 48.482 24.1622 48.482 25.9698C48.482 27.794 49.437 29.0157 50.857 29.0157C52.3023 29.0157 53.2495 27.8194 53.2495 25.9698Z" fill="white"/>
    <path d="M65.1245 25.9698C65.1245 28.7833 63.6187 30.5909 61.3462 30.5909C60.7706 30.621 60.1981 30.4884 59.6943 30.2083C59.1905 29.9281 58.7758 29.5118 58.4976 29.0069H58.4546V33.4913H56.5962V21.4425H58.395V22.9483H58.4292C58.7201 22.4459 59.1419 22.0317 59.6495 21.7498C60.1571 21.468 60.7317 21.329 61.312 21.3477C63.6099 21.3477 65.1245 23.1641 65.1245 25.9698ZM63.2144 25.9698C63.2144 24.1368 62.2671 22.9317 60.8218 22.9317C59.4019 22.9317 58.4468 24.1622 58.4468 25.9698C58.4468 27.794 59.4019 29.0157 60.8218 29.0157C62.2671 29.0157 63.2144 27.8194 63.2144 25.9698H63.2144Z" fill="white"/>
    <path d="M71.7105 27.0362C71.8482 28.2677 73.0445 29.0762 74.6792 29.0762C76.2456 29.0762 77.3726 28.2677 77.3726 27.1573C77.3726 26.1934 76.6929 25.6163 75.0835 25.2208L73.4742 24.8331C71.1939 24.2823 70.1353 23.2159 70.1353 21.4854C70.1353 19.3428 72.0025 17.8712 74.6538 17.8712C77.2778 17.8712 79.0767 19.3428 79.1372 21.4854H77.2612C77.1489 20.2462 76.1245 19.4981 74.6274 19.4981C73.1304 19.4981 72.106 20.255 72.106 21.3565C72.106 22.2344 72.7603 22.751 74.3608 23.1465L75.729 23.4825C78.2769 24.085 79.3355 25.1085 79.3355 26.9248C79.3355 29.2481 77.4849 30.7032 74.5415 30.7032C71.7876 30.7032 69.9282 29.2823 69.8081 27.0362L71.7105 27.0362Z" fill="white"/>
    <path d="M83.3462 19.2999V21.4425H85.0679V22.9142H83.3462V27.9054C83.3462 28.6808 83.6909 29.0421 84.4477 29.0421C84.6521 29.0386 84.8562 29.0242 85.0591 28.9991V30.462C84.7188 30.5256 84.3729 30.5544 84.0268 30.5479C82.1938 30.5479 81.479 29.8595 81.479 28.1036V22.9142H80.1626V21.4425H81.479V19.2999H83.3462Z" fill="white"/>
    <path d="M86.065 25.9698C86.065 23.1212 87.7427 21.3312 90.3589 21.3312C92.9839 21.3312 94.6539 23.1212 94.6539 25.9698C94.6539 28.8263 92.9927 30.6085 90.3589 30.6085C87.7261 30.6085 86.065 28.8263 86.065 25.9698ZM92.7603 25.9698C92.7603 24.0157 91.8648 22.8624 90.3589 22.8624C88.8531 22.8624 87.9585 24.0245 87.9585 25.9698C87.9585 27.9318 88.8531 29.0763 90.3589 29.0763C91.8648 29.0763 92.7603 27.9318 92.7603 25.9698H92.7603Z" fill="white"/>
    <path d="M96.186 21.4425H97.9585V22.9835H98.0015C98.1214 22.5022 98.4034 22.0769 98.8 21.779C99.1966 21.4811 99.6836 21.3288 100.179 21.3478C100.393 21.347 100.607 21.3703 100.816 21.4171V23.1554C100.546 23.0728 100.264 23.0348 99.981 23.0431C99.711 23.0321 99.4418 23.0797 99.192 23.1826C98.9421 23.2855 98.7175 23.4412 98.5335 23.6391C98.3496 23.837 98.2106 24.0724 98.1262 24.3291C98.0417 24.5857 98.0139 24.8576 98.0444 25.1261V30.4962H96.186L96.186 21.4425Z" fill="white"/>
    <path d="M109.384 27.837C109.134 29.4806 107.534 30.6085 105.486 30.6085C102.852 30.6085 101.217 28.8439 101.217 26.0128C101.217 23.173 102.861 21.3312 105.408 21.3312C107.913 21.3312 109.488 23.0519 109.488 25.797V26.4337H103.093V26.546C103.064 26.8792 103.105 27.2149 103.216 27.5307C103.326 27.8466 103.502 28.1353 103.732 28.3779C103.963 28.6204 104.242 28.8112 104.552 28.9375C104.861 29.0638 105.195 29.1228 105.529 29.1105C105.968 29.1516 106.409 29.0499 106.785 28.8205C107.162 28.591 107.455 28.2461 107.62 27.837L109.384 27.837ZM103.102 25.1349H107.628C107.645 24.8353 107.6 24.5355 107.495 24.2543C107.39 23.9731 107.229 23.7165 107.02 23.5008C106.812 23.285 106.561 23.1147 106.283 23.0004C106.006 22.8862 105.708 22.8306 105.408 22.837C105.105 22.8352 104.805 22.8934 104.525 23.0081C104.245 23.1229 103.99 23.2919 103.776 23.5056C103.562 23.7192 103.392 23.9732 103.276 24.2528C103.16 24.5325 103.101 24.8323 103.102 25.1349V25.1349Z" fill="white"/>
    <path d="M36.7383 11.2536H37.5362C37.6735 11.2707 37.8129 11.2591 37.9456 11.2197C38.0782 11.1803 38.2013 11.1138 38.307 11.0244C38.4127 10.935 38.4987 10.8247 38.5597 10.7005C38.6206 10.5762 38.6552 10.4407 38.6612 10.3024C38.6612 9.75211 38.2471 9.39664 37.5449 9.39664C37.4042 9.37698 37.261 9.38571 37.1237 9.42232C36.9864 9.45893 36.8579 9.52267 36.7456 9.60979C36.6334 9.6969 36.5398 9.80563 36.4702 9.92953C36.4007 10.0534 36.3567 10.19 36.3408 10.3312H35.4648C35.4799 10.0749 35.5476 9.82446 35.6637 9.59545C35.7797 9.36644 35.9417 9.16377 36.1395 9.00007C36.3373 8.83636 36.5666 8.71513 36.8133 8.64391C37.06 8.57269 37.3186 8.55301 37.5732 8.58609C38.748 8.58609 39.5752 9.2438 39.5752 10.1906C39.578 10.5078 39.4719 10.8163 39.2746 11.0647C39.0773 11.313 38.8008 11.4862 38.4912 11.5553V11.6256C38.8582 11.6419 39.2039 11.8028 39.4526 12.0732C39.7013 12.3436 39.8328 12.7014 39.8184 13.0685C39.7912 13.3324 39.7117 13.5882 39.5844 13.821C39.4571 14.0537 39.2846 14.2587 39.077 14.4239C38.8695 14.5891 38.631 14.7113 38.3756 14.7831C38.1203 14.855 37.8531 14.8752 37.5899 14.8424C37.3261 14.8784 37.0577 14.8609 36.8008 14.7909C36.5439 14.721 36.3037 14.6 36.0946 14.4352C35.8854 14.2705 35.7116 14.0653 35.5835 13.8319C35.4553 13.5985 35.3755 13.3417 35.3487 13.0768H36.2383C36.292 13.6476 36.8164 14.0158 37.5899 14.0158C38.3633 14.0158 38.8682 13.6023 38.8682 13.0192C38.8682 12.4279 38.3926 12.0637 37.5616 12.0637H36.7383V11.2536Z" fill="white"/>
    <path d="M40.8291 13.4244C40.8291 12.6139 41.4336 12.1466 42.5039 12.0802L43.7236 12.0099V11.6212C43.7236 11.1456 43.4102 10.8771 42.8018 10.8771C42.3057 10.8771 41.9629 11.0592 41.8633 11.3776H41.0029C41.0937 10.6041 41.8223 10.108 42.8438 10.108C43.9727 10.108 44.6094 10.67 44.6094 11.6212V14.6979H43.7529V14.0651H43.6826C43.5399 14.2921 43.3395 14.4771 43.1019 14.6013C42.8643 14.7255 42.5979 14.7844 42.3301 14.7721C42.141 14.7917 41.95 14.7716 41.7692 14.7129C41.5885 14.6542 41.422 14.5582 41.2806 14.4313C41.1392 14.3043 41.0259 14.1491 40.9482 13.9757C40.8704 13.8023 40.8298 13.6145 40.8291 13.4244ZM43.7236 13.0397V12.6632L42.624 12.7335C42.0039 12.775 41.7226 12.986 41.7226 13.3829C41.7226 13.7882 42.0742 14.024 42.5576 14.024C42.6993 14.0384 42.8423 14.0241 42.9784 13.982C43.1144 13.9399 43.2405 13.8709 43.3493 13.779C43.4581 13.6872 43.5473 13.5744 43.6116 13.4474C43.6759 13.3204 43.714 13.1817 43.7236 13.0397Z" fill="white"/>
    <path d="M46.9678 10.943V14.6979H46.0791V10.1949H49.044V10.9429L46.9678 10.943Z" fill="white"/>
    <path d="M54.4297 12.4445C54.4297 13.8751 53.7061 14.7721 52.5693 14.7721C52.2903 14.7912 52.0116 14.7301 51.7661 14.5961C51.5206 14.4621 51.3185 14.2608 51.1836 14.0158H51.1133V16.195H50.2246V10.195H51.0801V10.9391H51.1465C51.2838 10.6856 51.4886 10.4749 51.7381 10.3304C51.9877 10.1859 52.2723 10.1132 52.5606 10.1203C53.7061 10.1203 54.4297 11.0133 54.4297 12.4445ZM53.5156 12.4445C53.5156 11.4933 53.0654 10.9186 52.3125 10.9186C51.5645 10.9186 51.0967 11.5055 51.0967 12.4484C51.0967 13.3869 51.5645 13.9743 52.3086 13.9743C53.0654 13.9743 53.5156 13.3995 53.5156 12.4445Z" fill="white"/>
    <path d="M55.6133 16.3107V15.5455C55.7095 15.5578 55.8064 15.5633 55.9033 15.5621C56.0927 15.5762 56.2805 15.5198 56.4308 15.4038C56.5811 15.2878 56.6833 15.1204 56.7178 14.9337L56.7842 14.7145L55.1543 10.1949H56.1221L57.251 13.7716H57.3213L58.4463 10.1949H59.3887L57.71 14.8839C57.3252 15.9796 56.8995 16.3312 55.9815 16.3312C55.9073 16.3312 55.6963 16.3229 55.6133 16.3107Z" fill="white"/>
    <path d="M60.0811 13.42H60.9658C61.0527 13.817 61.4248 14.024 61.9453 14.024C62.5371 14.024 62.9004 13.7633 62.9004 13.358C62.9004 12.9239 62.5742 12.7169 61.9453 12.7169H61.2715V12.0265H61.9336C62.4707 12.0265 62.7441 11.8199 62.7441 11.4435C62.7441 11.1129 62.4795 10.8605 61.9336 10.8605C61.4365 10.8605 61.0732 11.0714 61.0156 11.4269H60.1592C60.2232 11.0184 60.445 10.6514 60.7768 10.4048C61.1086 10.1581 61.524 10.0516 61.9336 10.108C63.0039 10.108 63.6162 10.5919 63.6162 11.3527C63.6212 11.5645 63.5533 11.7717 63.4239 11.9395C63.2945 12.1073 63.1114 12.2256 62.9053 12.2746V12.3449C63.1507 12.3765 63.376 12.4972 63.5384 12.6839C63.7007 12.8707 63.7889 13.1106 63.7861 13.358C63.7861 14.214 63.0576 14.7804 61.9453 14.7804C60.9619 14.7804 60.1631 14.3297 60.0811 13.42Z" fill="white"/>
    <path d="M65.0659 14.6979V10.1949H65.9468V13.2921H66.0171L68.0923 10.195H68.9731V14.6979H68.0923V11.5841H68.0259L65.9468 14.6979L65.0659 14.6979Z" fill="white"/>
    <path d="M73.8257 10.943H72.4077V14.6979H71.518V10.943H70.1V10.195H73.8257V10.943Z" fill="white"/>
    <path d="M78.6128 13.4821C78.4917 13.8936 78.2299 14.2495 77.8731 14.4876C77.5163 14.7257 77.0872 14.8309 76.6607 14.7848C76.364 14.7926 76.0692 14.7358 75.7967 14.6183C75.5242 14.5008 75.2805 14.3253 75.0826 14.1042C74.8847 13.8831 74.7373 13.6215 74.6506 13.3377C74.5639 13.0539 74.54 12.7546 74.5806 12.4606C74.5411 12.1657 74.5654 11.8658 74.6519 11.5811C74.7384 11.2964 74.885 11.0337 75.0819 10.8106C75.2788 10.5875 75.5213 10.4093 75.793 10.2881C76.0647 10.1669 76.3593 10.1055 76.6568 10.108C77.9097 10.108 78.6665 10.964 78.6665 12.378V12.6881H75.4869V12.7379C75.4728 12.9032 75.4934 13.0696 75.5475 13.2264C75.6016 13.3833 75.6878 13.527 75.8008 13.6485C75.9137 13.77 76.0508 13.8665 76.2033 13.9319C76.3558 13.9972 76.5202 14.03 76.6861 14.0279C76.8985 14.0533 77.1137 14.015 77.3043 13.9178C77.4949 13.8206 77.6522 13.6689 77.7564 13.482L78.6128 13.4821ZM75.4868 12.0309H77.7603C77.7715 11.8799 77.751 11.7281 77.7001 11.5855C77.6492 11.4428 77.5691 11.3124 77.4648 11.2025C77.3605 11.0927 77.2344 11.0058 77.0946 10.9476C76.9547 10.8894 76.8043 10.861 76.6529 10.8644C76.4991 10.8623 76.3465 10.8911 76.2041 10.9489C76.0616 11.0068 75.9322 11.0927 75.8235 11.2014C75.7148 11.3102 75.629 11.4396 75.5712 11.5821C75.5134 11.7246 75.4847 11.8772 75.4869 12.0309H75.4868Z" fill="white"/>
    <path d="M82.3804 10.1949H84.4106C85.2915 10.1949 85.8081 10.6412 85.8081 11.3399C85.8095 11.5617 85.7347 11.7771 85.5962 11.9503C85.4577 12.1234 85.264 12.2437 85.0474 12.2911V12.3614C85.3103 12.378 85.5569 12.495 85.7361 12.6882C85.9153 12.8814 86.0134 13.136 86.0103 13.3995C86.0103 14.1852 85.4194 14.6979 84.4312 14.6979H82.3804V10.1949ZM83.2612 10.8771V12.0431H84.1421C84.6792 12.0431 84.936 11.8365 84.936 11.4557C84.936 11.1046 84.7124 10.8771 84.2407 10.8771L83.2612 10.8771ZM83.2612 12.6964V14.0158H84.315C84.8404 14.0158 85.1216 13.7838 85.1216 13.358C85.1216 12.9074 84.8033 12.6964 84.2036 12.6964L83.2612 12.6964Z" fill="white"/>
</svg>
